#N canvas 334 348 718 467 12;
#X obj 423 165 * 10;
#X obj 343 165 * 10;
#X obj 610 165 * 10;
#X obj 530 165 * 10;
#X obj 343 137 change;
#X obj 423 137 change;
#X obj 530 137 change;
#X obj 610 137 change;
#X obj 82 51 r \$1-STATE;
#X obj 24 51 inlet;
#X msg 82 206 0;
#X obj 82 369 send;
#X msg 107 336 symbol B-\$1;
#X obj 107 307 \$1;
#X obj 107 278 loadbang;
#X obj 343 218 pack f f;
#X obj 530 218 pack f f;
#X obj 530 369 send;
#X msg 555 336 symbol B-\$1;
#X obj 555 307 \$1;
#X obj 555 278 loadbang;
#X obj 343 369 send;
#X msg 368 335 symbol B-\$1;
#X obj 368 307 \$1;
#X obj 368 278 loadbang;
#X msg 343 248 pos \$1 \$2;
#X msg 530 248 vis_size \$1 \$2;
#X msg 82 250 color \$1;
#X obj 125 206 f;
#X obj 125 81 r \$1-LAST-STATE;
#X obj 82 168 sel 0;
#X obj 290 21 r blob-\$1;
#X obj 290 48 unpack f f f f f;
#X text 445 14 \$1 Blob / POSX;
#X text 445 24 \$2 Blob / POSY;
#X text 445 34 \$3 Blob / POSZ;
#X text 445 44 \$4 Blob / WIDTH;
#X text 445 54 \$5 Blob / HEIGHT;
#X connect 0 0 15 1;
#X connect 1 0 15 0;
#X connect 2 0 16 1;
#X connect 3 0 16 0;
#X connect 4 0 1 0;
#X connect 5 0 0 0;
#X connect 6 0 3 0;
#X connect 7 0 2 0;
#X connect 8 0 30 0;
#X connect 10 0 27 0;
#X connect 12 0 11 1;
#X connect 13 0 12 0;
#X connect 14 0 13 0;
#X connect 15 0 25 0;
#X connect 16 0 26 0;
#X connect 18 0 17 1;
#X connect 19 0 18 0;
#X connect 20 0 19 0;
#X connect 22 0 21 1;
#X connect 23 0 22 0;
#X connect 24 0 23 0;
#X connect 25 0 21 0;
#X connect 26 0 17 0;
#X connect 27 0 11 0;
#X connect 28 0 27 0;
#X connect 30 0 10 0;
#X connect 30 1 28 0;
#X connect 31 0 32 0;
#X connect 32 0 4 0;
#X connect 32 1 5 0;
#X connect 32 2 28 1;
#X connect 32 3 6 0;
#X connect 32 4 7 0;
