#N canvas 929 148 718 496 12;
#X obj 393 165 * 10;
#X obj 313 165 * 10;
#X obj 580 165 * 10;
#X obj 500 165 * 10;
#X obj 313 137 change;
#X obj 393 137 change;
#X obj 500 137 change;
#X obj 580 137 change;
#X obj 112 81 r \$1-STATE;
#X obj 313 81 r \$1-POSX;
#X obj 393 81 r \$1-POSY;
#X obj 500 81 r \$1-WIDTH;
#X obj 580 81 r \$1-HEIGHT;
#X obj 36 81 inlet;
#X msg 112 206 0;
#X obj 112 369 send;
#X msg 137 336 symbol B-\$1;
#X obj 137 307 \$1;
#X obj 137 278 loadbang;
#X obj 112 168 select 0 1;
#X obj 313 218 pack f f;
#X obj 500 218 pack f f;
#X obj 500 369 send;
#X msg 525 336 symbol B-\$1;
#X obj 525 307 \$1;
#X obj 525 278 loadbang;
#X obj 313 369 send;
#X msg 338 335 symbol B-\$1;
#X obj 338 307 \$1;
#X obj 338 278 loadbang;
#X msg 313 248 pos \$1 \$2;
#X msg 500 248 vis_size \$1 \$2;
#X msg 112 250 color \$1;
#X obj 202 81 r \$1-DEPTH;
#X obj 202 168 / 10;
#X obj 145 206 f;
#X connect 0 0 20 1;
#X connect 1 0 20 0;
#X connect 2 0 21 1;
#X connect 3 0 21 0;
#X connect 4 0 1 0;
#X connect 5 0 0 0;
#X connect 6 0 3 0;
#X connect 7 0 2 0;
#X connect 8 0 19 0;
#X connect 9 0 4 0;
#X connect 10 0 5 0;
#X connect 11 0 6 0;
#X connect 12 0 7 0;
#X connect 14 0 32 0;
#X connect 16 0 15 1;
#X connect 17 0 16 0;
#X connect 18 0 17 0;
#X connect 19 0 14 0;
#X connect 19 1 35 0;
#X connect 20 0 30 0;
#X connect 21 0 31 0;
#X connect 23 0 22 1;
#X connect 24 0 23 0;
#X connect 25 0 24 0;
#X connect 27 0 26 1;
#X connect 28 0 27 0;
#X connect 29 0 28 0;
#X connect 30 0 26 0;
#X connect 31 0 22 0;
#X connect 32 0 15 0;
#X connect 33 0 34 0;
#X connect 34 0 35 1;
#X connect 35 0 32 0;
