#N canvas 2212 172 718 496 12;
#X obj 353 155 * 10;
#X obj 273 155 * 10;
#X obj 82 127 change;
#X obj 520 155 * 10;
#X obj 440 155 * 10;
#X obj 273 127 change;
#X obj 353 127 change;
#X obj 440 127 change;
#X obj 520 127 change;
#X obj 82 71 r \$1-STATE;
#X obj 273 71 r \$1-POSX;
#X obj 353 71 r \$1-POSY;
#X obj 440 71 r \$1-WIDTH;
#X obj 520 71 r \$1-HEIGHT;
#X obj 273 208 pack f f \$1;
#X obj 440 208 pack f f \$1;
#X msg 273 332 \; B-\$3 pos \$1 \$2;
#X msg 440 332 \; B-\$3 vis_size \$1 \$2;
#X obj 6 71 inlet;
#X msg 82 196 0;
#X msg 120 196 405;
#X obj 82 279 send;
#X msg 164 216 symbol B-\$1;
#X obj 164 187 \$1;
#X obj 164 158 loadbang;
#X obj 82 158 select 0 1;
#X connect 0 0 14 1;
#X connect 1 0 14 0;
#X connect 2 0 25 0;
#X connect 3 0 15 1;
#X connect 4 0 15 0;
#X connect 5 0 1 0;
#X connect 6 0 0 0;
#X connect 7 0 4 0;
#X connect 8 0 3 0;
#X connect 9 0 2 0;
#X connect 10 0 5 0;
#X connect 11 0 6 0;
#X connect 12 0 7 0;
#X connect 13 0 8 0;
#X connect 14 0 16 0;
#X connect 15 0 17 0;
#X connect 19 0 21 0;
#X connect 20 0 21 0;
#X connect 22 0 21 1;
#X connect 23 0 22 0;
#X connect 24 0 23 0;
#X connect 25 0 19 0;
#X connect 25 1 20 0;
