#N canvas 1150 642 560 392 12;
#X obj 262 127 * 10;
#X obj 182 127 * 10;
#X obj 48 127 sel 0 1;
#X obj 48 99 change;
#X obj 429 127 * 10;
#X obj 349 127 * 10;
#X obj 182 99 change;
#X obj 262 99 change;
#X obj 349 99 change;
#X obj 429 99 change;
#X obj 48 43 r \$1-STATE;
#X obj 182 43 r \$1-POSX;
#X obj 262 43 r \$1-POSY;
#X obj 349 43 r \$1-WIDTH;
#X obj 429 43 r \$1-HEIGHT;
#X obj 182 180 pack f f \$1;
#X obj 349 180 pack f f \$1;
#X obj 48 165 pack 0 \$1;
#X msg 71 264 \; B-\$2 color \$1;
#X msg 48 307 \; B-\$2 color \$1;
#X msg 182 304 \; B-\$3 pos \$1 \$2;
#X msg 349 304 \; B-\$3 vis_size \$1 \$2;
#X obj 71 193 pack 405 \$1;
#X connect 0 0 15 1;
#X connect 1 0 15 0;
#X connect 2 0 17 0;
#X connect 2 1 22 0;
#X connect 3 0 2 0;
#X connect 4 0 16 1;
#X connect 5 0 16 0;
#X connect 6 0 1 0;
#X connect 7 0 0 0;
#X connect 8 0 5 0;
#X connect 9 0 4 0;
#X connect 10 0 3 0;
#X connect 11 0 6 0;
#X connect 12 0 7 0;
#X connect 13 0 8 0;
#X connect 14 0 9 0;
#X connect 15 0 20 0;
#X connect 16 0 21 0;
#X connect 17 0 19 0;
#X connect 22 0 18 0;
