#N canvas 6 91 943 591 10;
#X obj 608 57 r THRESHOLD;
#X obj 467 138 select 0;
#X obj 608 125 - 0;
#X msg 608 103 255;
#X obj 608 81 t b f;
#X obj 48 35 route \$1;
#X obj 7 13 inlet;
#X obj 834 122 s height-\$1;
#X obj 733 122 s width-\$1;
#X obj 733 81 r raw_width-\$1;
#X obj 834 81 r raw_height-\$1;
#X obj 114 198 s raw_posX-\$1;
#X obj 133 177 s raw_posY-\$1;
#X obj 153 157 s raw_width-\$1;
#X obj 172 137 s raw_height-\$1;
#X obj 192 117 s raw_depth-\$1;
#X obj 593 16 r raw_depth-\$1;
#X obj 593 296 s depth-\$1;
#X obj 593 192 pow 1.4;
#X obj 593 222 iir 10;
#X obj 165 479 r depth-\$1;
#X obj 467 47 change;
#X obj 114 409 r posY-\$1;
#X obj 48 549 outlet;
#X obj 98 386 r posX-\$1;
#X obj 131 432 r width-\$1;
#X obj 148 455 r height-\$1;
#X obj 48 13 r OSC-INPUT;
#X obj 48 58 t b a;
#X obj 48 286 \$1;
#X obj 733 16 r raw_posX-\$1;
#X obj 834 16 r raw_posY-\$1;
#X obj 733 56 s posX-\$1;
#X obj 834 56 s posY-\$1;
#X obj 593 163 / 1;
#X text 75 286 <- UID;
#X msg 467 162 reset 0 \, 0;
#X obj 593 246 * 255;
#X obj 593 271 i;
#X obj 75 240 s raw_state-\$1;
#X obj 94 219 s raw_lastState-\$1;
#X obj 75 87 unpack f f f f f f f;
#X obj 48 508 pack f f f f f f f f;
#X obj 64 342 r state-\$1;
#X obj 81 364 r lastState-\$1;
#X obj 467 16 r raw_lastState-\$1;
#X obj 479 78 s lastState-\$1;
#X obj 347 47 change;
#X obj 347 16 r raw_state-\$1;
#X obj 347 78 s state-\$1;
#X connect 0 0 4 0;
#X connect 1 0 36 0;
#X connect 2 0 34 1;
#X connect 3 0 2 0;
#X connect 4 0 3 0;
#X connect 4 1 2 1;
#X connect 5 0 28 0;
#X connect 9 0 8 0;
#X connect 10 0 7 0;
#X connect 16 0 34 0;
#X connect 18 0 19 0;
#X connect 19 0 37 0;
#X connect 20 0 42 7;
#X connect 21 0 1 0;
#X connect 21 0 46 0;
#X connect 22 0 42 4;
#X connect 24 0 42 3;
#X connect 25 0 42 5;
#X connect 26 0 42 6;
#X connect 27 0 5 0;
#X connect 28 0 29 0;
#X connect 28 1 41 0;
#X connect 29 0 42 0;
#X connect 30 0 32 0;
#X connect 31 0 33 0;
#X connect 34 0 18 0;
#X connect 36 0 19 0;
#X connect 37 0 38 0;
#X connect 38 0 17 0;
#X connect 41 0 39 0;
#X connect 41 1 40 0;
#X connect 41 2 11 0;
#X connect 41 3 12 0;
#X connect 41 4 13 0;
#X connect 41 5 14 0;
#X connect 41 6 15 0;
#X connect 42 0 23 0;
#X connect 43 0 42 1;
#X connect 44 0 42 2;
#X connect 45 0 21 0;
#X connect 47 0 49 0;
#X connect 48 0 47 0;
