#N canvas 828 251 397 340 10;
#X text 131 66 Channel, f 8;
#X text 21 66 Value;
#X obj 67 65 notein;
#X text 64 36 Blob / I/O;
#X obj 67 111 pack f f f;
#X obj 67 145 print;
#X connect 2 0 4 0;
#X connect 2 1 4 1;
#X connect 2 2 4 2;
#X connect 4 0 5 0;
