#N canvas 1148 387 571 508 12;
#X declare -lib mrpeach;
#X declare -lib comport;
#X msg 198 287 connect 192.168.0.101 7771;
#X msg 210 333 disconnect;
#N canvas 554 206 971 571 e256_SLIP-OSC_input 0;
#X obj 208 157 packOSC;
#X obj 126 289 select 1;
#X obj 330 308 spigot;
#X msg 460 138 send /t \$1;
#X text 295 100 <- Calibrate E256;
#X msg 330 332 /b;
#X obj 330 281 t b f;
#X text 364 332 <- Get blobs;
#X msg 208 101 send /c 20;
#X obj 80 320 unpackOSC;
#X obj 80 239 comport 0 230400;
#X obj 208 180 slipenc;
#X obj 80 264 slipdec;
#X obj 80 347 routeOSC /b;
#X msg 80 420 vis 0 1;
#X obj 605 98 t b f;
#X obj 647 121 t b f;
#X obj 690 143 t b f;
#X obj 732 166 t b f;
#X obj 775 189 t b f;
#X obj 817 213 t b f;
#X obj 860 235 t b f;
#X obj 590 273 expr $f1 + $f2 + $f3 + $f4 + $f5 + $f6 + $f7 + $f8;
#X obj 590 50 r alive-0;
#X obj 605 74 r alive-1;
#X obj 647 97 r alive-2;
#X obj 690 120 r alive-3;
#X obj 732 143 r alive-4;
#X obj 775 166 r alive-5;
#X obj 817 189 r alive-6;
#X obj 860 212 r alive-7;
#X obj 80 374 send OSC-INPUT;
#X obj 80 50 inlet comport;
#X obj 208 50 inlet calibrate;
#X obj 460 50 inlet threshold;
#X obj 330 50 inlet start/stop;
#X obj 80 526 outlet;
#X obj 460 80 i;
#X obj 80 446 clone e256_input_filters 8;
#X obj 590 461 s blob_sum;
#X obj 470 109 s THRESHOLD;
#X obj 80 499 packOSC;
#X msg 80 473 [ \, /UID \$1 /S \$2 /X \$3 /Y \$4 /W \$5 /H \$6 /D \$7
\, ];
#X connect 0 0 11 0;
#X connect 1 0 2 0;
#X connect 2 0 5 0;
#X connect 3 0 0 0;
#X connect 5 0 0 0;
#X connect 6 0 2 0;
#X connect 6 1 2 1;
#X connect 8 0 0 0;
#X connect 9 0 13 0;
#X connect 10 0 12 0;
#X connect 11 0 10 0;
#X connect 12 0 9 0;
#X connect 12 1 1 0;
#X connect 13 0 31 0;
#X connect 14 0 38 0;
#X connect 15 0 22 0;
#X connect 15 1 22 1;
#X connect 16 0 22 0;
#X connect 16 1 22 2;
#X connect 17 0 22 0;
#X connect 17 1 22 3;
#X connect 18 0 22 0;
#X connect 18 1 22 4;
#X connect 19 0 22 0;
#X connect 19 1 22 5;
#X connect 20 0 22 0;
#X connect 20 1 22 6;
#X connect 21 0 22 0;
#X connect 21 1 22 7;
#X connect 22 0 39 0;
#X connect 23 0 22 0;
#X connect 24 0 15 0;
#X connect 25 0 16 0;
#X connect 26 0 17 0;
#X connect 27 0 18 0;
#X connect 28 0 19 0;
#X connect 29 0 20 0;
#X connect 30 0 21 0;
#X connect 32 0 10 0;
#X connect 33 0 8 0;
#X connect 34 0 37 0;
#X connect 35 0 6 0;
#X connect 37 0 3 0;
#X connect 37 0 40 0;
#X connect 38 0 42 0;
#X connect 41 0 36 0;
#X connect 42 0 41 0;
#X restore 187 219 pd e256_SLIP-OSC_input;
#X msg 187 83 devices;
#X msg 201 129 close;
#X msg 194 106 open 0;
#X obj 187 56 declare -lib mrpeach;
#X obj 187 33 declare -lib comport;
#X obj 237 172 bng 40 250 50 0 empty empty Calib 0 -9 0 10 -191407
-1 -1;
#X obj 287 172 tgl 40 0 empty empty ON/OFF 0 -9 0 10 -228856 -1 -1
1 1;
#X obj 338 174 vsl 40 35 0 20 0 1 threshold empty Thresh 0 -10 0 10
-128992 -1 -1 1600 0;
#X floatatom 353 220 6 0 0 1 Thresholde THRESHOLD -;
#X floatatom 353 244 6 0 0 1 Blob_sum blob_sum -;
#X msg 210 310 connect localhost 7771;
#X obj 187 359 udpsend;
#X obj 187 459 print OSC_UDP;
#X obj 187 407 udpreceive 7771;
#X obj 187 433 unpackOSC;
#X connect 0 0 14 0;
#X connect 1 0 14 0;
#X connect 2 0 14 0;
#X connect 3 0 2 0;
#X connect 4 0 2 0;
#X connect 5 0 2 0;
#X connect 8 0 2 1;
#X connect 9 0 2 2;
#X connect 10 0 2 3;
#X connect 13 0 14 0;
#X connect 16 0 17 0;
#X connect 17 0 15 0;
