#N canvas 248 300 1152 606 12;
#X text 96 14 eTextile-Synthetizer / MIDI / Pure-Data;
#X obj 460 320 cnv 15 50 20 empty B-1 empty 20 12 0 14 -262144 -66577
0;
#X text 96 74 Channel == Blob ID;
#X text 97 132 Blob STATE;
#X text 267 132 Blob POSX;
#X text 437 132 Blob POSY;
#X text 607 132 Blob WIDTH;
#X text 777 132 Blob HEIGHT;
#X text 947 132 Blob DEPTH;
#X floatatom 623 192 0 0 0 0 - - -;
#X floatatom 669 192 0 0 0 0 - - -;
#X text 668 162 Channel, f 8;
#X obj 610 284 send;
#X obj 656 216 change;
#X obj 610 161 ctlin 4;
#X obj 290 200 cnv 15 50 20 empty B-2 empty 20 12 0 14 -262144 -66577
0;
#X obj 100 362 clone blob_abs 10;
#X msg 656 243 symbol \$1-WIDTH;
#X text 564 162 Value;
#X floatatom 113 192 0 0 0 0 - - -;
#X floatatom 159 192 0 0 0 0 - - -;
#X text 158 162 Channel, f 8;
#X obj 100 284 send;
#X obj 146 216 change;
#X text 54 162 Value;
#X floatatom 283 192 0 0 0 0 - - -;
#X floatatom 329 192 0 0 0 0 - - -;
#X text 328 162 Channel, f 8;
#X obj 270 284 send;
#X obj 316 216 change;
#X text 224 162 Value;
#X floatatom 453 192 0 0 0 0 - - -;
#X floatatom 499 192 0 0 0 0 - - -;
#X text 498 162 Channel, f 8;
#X obj 440 284 send;
#X obj 486 216 change;
#X text 394 162 Value;
#X floatatom 793 192 0 0 0 0 - - -;
#X floatatom 839 192 0 0 0 0 - - -;
#X text 838 162 Channel, f 8;
#X obj 780 284 send;
#X obj 826 216 change;
#X text 734 162 Value;
#X floatatom 963 192 0 0 0 0 - - -;
#X floatatom 1009 192 0 0 0 0 - - -;
#X text 1008 162 Channel, f 8;
#X obj 950 284 send;
#X obj 996 216 change;
#X text 904 162 Value;
#X obj 100 161 ctlin 1;
#X obj 270 161 ctlin 2;
#X obj 440 161 ctlin 3;
#X obj 780 161 ctlin 5;
#X obj 950 161 ctlin 6;
#X msg 146 243 symbol \$1-STATE;
#X msg 316 243 symbol \$1-POSX;
#X msg 486 243 symbol \$1-POSY;
#X msg 826 243 symbol \$1-HEIGHT;
#X msg 996 243 symbol \$1-DEPTH;
#X obj 460 480 cnv 15 60 20 empty B-3 empty 20 12 0 14 -262144 -66577
0;
#X obj 240 480 cnv 15 50 20 empty B-4 empty 20 12 0 14 -262144 -66577
0;
#X obj 320 330 cnv 15 150 110 empty B-6 empty 20 12 0 14 -262144 -66577
0;
#X obj 590 290 cnv 15 10 50 empty B-5 empty 20 12 0 14 -262144 -66577
0;
#X connect 13 0 17 0;
#X connect 14 0 9 0;
#X connect 14 0 12 0;
#X connect 14 1 10 0;
#X connect 14 1 13 0;
#X connect 17 0 12 1;
#X connect 23 0 54 0;
#X connect 29 0 55 0;
#X connect 35 0 56 0;
#X connect 41 0 57 0;
#X connect 47 0 58 0;
#X connect 49 0 19 0;
#X connect 49 0 22 0;
#X connect 49 1 20 0;
#X connect 49 1 23 0;
#X connect 50 0 25 0;
#X connect 50 0 28 0;
#X connect 50 1 26 0;
#X connect 50 1 29 0;
#X connect 51 0 31 0;
#X connect 51 0 34 0;
#X connect 51 1 32 0;
#X connect 51 1 35 0;
#X connect 52 0 37 0;
#X connect 52 0 40 0;
#X connect 52 1 38 0;
#X connect 52 1 41 0;
#X connect 53 0 43 0;
#X connect 53 0 46 0;
#X connect 53 1 44 0;
#X connect 53 1 47 0;
#X connect 54 0 22 1;
#X connect 55 0 28 1;
#X connect 56 0 34 1;
#X connect 57 0 40 1;
#X connect 58 0 46 1;
