#N canvas 1139 100 506 515 12;
#X text 48 25 eTextile-Synthetizer / MIDI / Pure-Data;
#X obj 170 145 bng 30 250 50 0 empty empty Calibrate 0 -10 0 10 #00fc04 #000000 #000000;
#X obj 50 85 bng 30 250 50 0 EDIT_MODE empty EDIT_MODE 0 -10 0 10 #00fc04 #000000 #000000;
#X obj 130 125 bng 30 250 50 0 PLAY_MODE empty PLAY_MODE 0 -10 0 10 #00fc04 #000000 #000000;
#X msg 170 182 3;
#X obj 90 105 bng 30 250 50 0 EDIT_MODE empty THROUGH_MODE 0 -10 0 10 #00fc04 #000000 #000000;
#X obj 50 220 pgmout 4;
#X msg 50 122 6;
#X msg 90 142 7;
#X msg 130 162 8;
#X floatatom 50 317 0 0 0 0 - - - 0;
#X text 78 318 value;
#X obj 50 287 ctlin 1;
#X floatatom 130 317 0 0 0 0 - - - 0;
#X text 158 318 value;
#X floatatom 210 317 0 0 0 0 - - - 0;
#X text 238 318 value;
#X floatatom 290 317 0 0 0 0 - - - 0;
#X text 318 318 value;
#X obj 130 287 ctlin 2;
#X obj 210 287 ctlin 3;
#X obj 290 287 ctlin 4;
#X text 81 441 aftertouch value;
#X text 169 418 note;
#X floatatom 137 417 4 0 127 0 - - - 0;
#X floatatom 49 439 4 0 127 0 - - - 0;
#X obj 49 387 polytouchin 1;
#X floatatom 367 426 4 0 127 0 - - - 0;
#X floatatom 427 425 0 1 64 0 - - - 0;
#X obj 367 397 notein 64;
#X connect 1 0 4 0;
#X connect 2 0 7 0;
#X connect 3 0 9 0;
#X connect 4 0 6 0;
#X connect 5 0 8 0;
#X connect 7 0 6 0;
#X connect 8 0 6 0;
#X connect 9 0 6 0;
#X connect 12 0 10 0;
#X connect 19 0 13 0;
#X connect 20 0 15 0;
#X connect 21 0 17 0;
#X connect 26 0 25 0;
#X connect 26 1 24 0;
#X connect 29 0 27 0;
#X connect 29 1 28 0;
