#N canvas 0 91 1920 963 12;
#X text 96 14 eTextile-Synthetizer / MIDI / Pure-Data;
#X obj 930 430 cnv 15 100 70 empty B-1 empty 20 12 0 14 -262144 -66577
0;
#X text 96 74 Channel == Blob ID;
#X floatatom 623 192 0 0 0 0 - - -;
#X floatatom 669 192 0 0 0 0 - - -;
#X text 668 162 Channel, f 8;
#X obj 610 284 send;
#X obj 656 216 change;
#X obj 610 161 ctlin 4;
#X obj 1010 460 cnv 15 40 30 empty B-2 empty 20 12 0 14 -262144 -66577
0;
#X msg 656 243 symbol \$1-WIDTH;
#X text 564 162 Value;
#X floatatom 113 192 0 0 0 0 - - -;
#X floatatom 159 192 0 0 0 0 - - -;
#X text 158 162 Channel, f 8;
#X obj 100 284 send;
#X obj 146 216 change;
#X text 54 162 Value;
#X floatatom 283 192 0 0 0 0 - - -;
#X floatatom 329 192 0 0 0 0 - - -;
#X text 328 162 Channel, f 8;
#X obj 270 284 send;
#X obj 316 216 change;
#X text 224 162 Value;
#X floatatom 453 192 0 0 0 0 - - -;
#X floatatom 499 192 0 0 0 0 - - -;
#X text 498 162 Channel, f 8;
#X obj 440 284 send;
#X obj 486 216 change;
#X text 394 162 Value;
#X floatatom 793 192 0 0 0 0 - - -;
#X floatatom 839 192 0 0 0 0 - - -;
#X text 838 162 Channel, f 8;
#X obj 780 284 send;
#X obj 826 216 change;
#X text 734 162 Value;
#X floatatom 963 192 0 0 0 0 - - -;
#X floatatom 1009 192 0 0 0 0 - - -;
#X text 1008 162 Channel, f 8;
#X obj 950 284 send;
#X obj 996 216 change;
#X text 904 162 Value;
#X obj 100 161 ctlin 1;
#X obj 270 161 ctlin 2;
#X obj 440 161 ctlin 3;
#X obj 780 161 ctlin 5;
#X obj 950 161 ctlin 6;
#X msg 146 243 symbol \$1-STATE;
#X msg 316 243 symbol \$1-POSX;
#X msg 486 243 symbol \$1-POSY;
#X msg 826 243 symbol \$1-HEIGHT;
#X msg 996 243 symbol \$1-DEPTH;
#X obj 770 750 cnv 15 80 60 empty B-3 empty 20 12 0 14 -262131 -66577
0;
#X obj 440 520 cnv 15 20 50 empty B-4 empty 20 12 0 14 -262144 -66577
0;
#X obj 530 630 cnv 15 50 100 empty B-6 empty 20 12 0 14 -262144 -66577
0;
#X obj 440 430 cnv 15 10 30 empty B-5 empty 20 12 0 14 -262144 -66577
0;
#X msg 100 382 vis 3 1;
#X text 97 132 Blob / STATE;
#X text 267 132 Blob / POSX;
#X text 437 132 Blob / POSY;
#X text 607 132 Blob / WIDTH;
#X text 777 132 Blob / HEIGHT;
#X text 947 132 Blob / DEPTH;
#X obj 100 416 clone blob_abs 8;
#X connect 7 0 10 0;
#X connect 8 0 3 0;
#X connect 8 0 6 0;
#X connect 8 1 4 0;
#X connect 8 1 7 0;
#X connect 10 0 6 1;
#X connect 16 0 47 0;
#X connect 22 0 48 0;
#X connect 28 0 49 0;
#X connect 34 0 50 0;
#X connect 40 0 51 0;
#X connect 42 0 12 0;
#X connect 42 0 15 0;
#X connect 42 1 13 0;
#X connect 42 1 16 0;
#X connect 43 0 18 0;
#X connect 43 0 21 0;
#X connect 43 1 19 0;
#X connect 43 1 22 0;
#X connect 44 0 24 0;
#X connect 44 0 27 0;
#X connect 44 1 25 0;
#X connect 44 1 28 0;
#X connect 45 0 30 0;
#X connect 45 0 33 0;
#X connect 45 1 31 0;
#X connect 45 1 34 0;
#X connect 46 0 36 0;
#X connect 46 0 39 0;
#X connect 46 1 37 0;
#X connect 46 1 40 0;
#X connect 47 0 15 1;
#X connect 48 0 21 1;
#X connect 49 0 27 1;
#X connect 50 0 33 1;
#X connect 51 0 39 1;
#X connect 56 0 63 0;
