#N canvas 1144 459 571 508 12;
#X declare -lib mrpeach;
#X declare -lib comport;
#X msg 198 278 connect 192.168.0.101 7771;
#X msg 210 324 disconnect;
#N canvas 554 206 971 571 e256_SLIP-OSC_input 0;
#X obj 208 157 packOSC;
#X obj 126 289 select 1;
#X obj 330 308 spigot;
#X msg 460 138 send /t \$1;
#X msg 330 332 /b;
#X obj 330 281 t b f;
#X text 364 332 <- Get blobs;
#X obj 80 320 unpackOSC;
#X obj 80 239 comport 0 230400;
#X obj 208 180 slipenc;
#X obj 80 264 slipdec;
#X obj 80 347 routeOSC /b;
#X msg 80 420 vis 0 1;
#X obj 605 98 t b f;
#X obj 647 121 t b f;
#X obj 690 143 t b f;
#X obj 732 166 t b f;
#X obj 775 189 t b f;
#X obj 817 213 t b f;
#X obj 860 235 t b f;
#X obj 590 273 expr $f1 + $f2 + $f3 + $f4 + $f5 + $f6 + $f7 + $f8;
#X obj 80 374 send OSC-INPUT;
#X obj 80 50 inlet comport;
#X obj 208 50 inlet calibrate;
#X obj 460 50 inlet threshold;
#X obj 330 50 inlet start/stop;
#X obj 80 526 outlet;
#X obj 590 311 s blob_sum;
#X obj 470 109 s THRESHOLD;
#X obj 80 499 packOSC;
#X obj 80 446 clone input_filters 8;
#X obj 391 421 print;
#X msg 80 473 [ \, /UID \$2 /S \$3 /L \$4 /X \$5 /Y \$6 /W \$7 /H \$8
/D \$9 \, ];
#X obj 460 80 i 0;
#X msg 208 101 send /c;
#X text 273 100 <- Calibrate the matrix;
#X obj 590 50 r state-0;
#X obj 605 74 r state-1;
#X obj 647 97 r state-2;
#X obj 690 120 r state-3;
#X obj 732 143 r state-4;
#X obj 775 166 r state-5;
#X obj 817 189 r state-6;
#X obj 860 212 r state-7;
#X connect 0 0 9 0;
#X connect 1 0 2 0;
#X connect 2 0 4 0;
#X connect 3 0 0 0;
#X connect 4 0 0 0;
#X connect 5 0 2 0;
#X connect 5 1 2 1;
#X connect 7 0 11 0;
#X connect 8 0 10 0;
#X connect 9 0 8 0;
#X connect 10 0 7 0;
#X connect 10 1 1 0;
#X connect 11 0 21 0;
#X connect 12 0 30 0;
#X connect 13 0 20 0;
#X connect 13 1 20 1;
#X connect 14 0 20 0;
#X connect 14 1 20 2;
#X connect 15 0 20 0;
#X connect 15 1 20 3;
#X connect 16 0 20 0;
#X connect 16 1 20 4;
#X connect 17 0 20 0;
#X connect 17 1 20 5;
#X connect 18 0 20 0;
#X connect 18 1 20 6;
#X connect 19 0 20 0;
#X connect 19 1 20 7;
#X connect 20 0 27 0;
#X connect 22 0 8 0;
#X connect 23 0 34 0;
#X connect 24 0 33 0;
#X connect 25 0 5 0;
#X connect 29 0 26 0;
#X connect 30 0 32 0;
#X connect 32 0 29 0;
#X connect 32 0 31 0;
#X connect 33 0 3 0;
#X connect 33 0 28 0;
#X connect 34 0 0 0;
#X connect 36 0 20 0;
#X connect 37 0 13 0;
#X connect 38 0 14 0;
#X connect 39 0 15 0;
#X connect 40 0 16 0;
#X connect 41 0 17 0;
#X connect 42 0 18 0;
#X connect 43 0 19 0;
#X restore 187 210 pd e256_SLIP-OSC_input;
#X msg 187 74 devices;
#X msg 201 120 close;
#X msg 194 97 open 0;
#X obj 187 47 declare -lib mrpeach;
#X obj 187 24 declare -lib comport;
#X obj 237 163 bng 40 250 50 0 empty empty Calib 0 -9 0 10 -191407
-1 -1;
#X obj 287 163 tgl 40 0 empty empty ON/OFF 0 -9 0 10 -228856 -1 -1
1 1;
#X obj 338 165 vsl 40 35 0 20 0 1 threshold empty Thresh 0 -10 0 10
-128992 -1 -1 1400 0;
#X floatatom 353 211 6 0 0 1 Thresholde THRESHOLD -;
#X floatatom 353 235 6 0 0 1 Blob_sum blob_sum -;
#X msg 210 301 connect localhost 7771;
#X obj 187 350 udpsend;
#X obj 187 450 print OSC_UDP;
#X obj 187 398 udpreceive 7771;
#X obj 187 424 unpackOSC;
#X connect 0 0 14 0;
#X connect 1 0 14 0;
#X connect 3 0 2 0;
#X connect 4 0 2 0;
#X connect 5 0 2 0;
#X connect 8 0 2 1;
#X connect 9 0 2 2;
#X connect 10 0 2 3;
#X connect 13 0 14 0;
#X connect 16 0 17 0;
#X connect 17 0 15 0;
