#N canvas 690 404 446 265 10;
#X obj 233 60 notein;
#X obj 173 163 pack f f f;
#X obj 227 127 noteout;
#X obj 173 193 print;
#X obj 173 91 pipe 10;
#X connect 0 0 4 0;
#X connect 0 1 1 1;
#X connect 0 1 2 1;
#X connect 0 2 1 2;
#X connect 0 2 2 2;
#X connect 1 0 3 0;
#X connect 4 0 2 0;
#X connect 4 0 1 0;
